<?xml version="1.0" ?><!DOCTYPE svg  PUBLIC '-//W3C//DTD SVG 1.1//EN'  'http://www.w3.org/Graphics/SVG/1.1/DTD/svg11.dtd'><svg enable-background="new 0 0 128 128" id="Слой_1" version="1.1" viewBox="0 0 128 128" xml:space="preserve" xmlns="http://www.w3.org/2000/svg" xmlns:xlink="http://www.w3.org/1999/xlink"><g><polygon fill="#3EBBC4" points="53.4,85.5 50.6,88.3 63.2,100.9 82.5,78.6 79.5,75.9 62.9,95  "/><path d="M111,12H92v17.2l-28-28L1.2,64L9,71.8l8-8V126h94V63.8l8,8l7.8-7.8L111,48.2V12z M107,60v62H21V60h-0.2   L64,16.8L107.2,60H107z M121.2,64l-2.2,2.2l-55-55l-55,55L6.8,64L64,6.8l32,32V16h11v33.8L121.2,64z" fill="#3EBBC4"/></g></svg>